Patient4_TMGait_0pt5_01_left_01_EMG.mot
version=1
nRows=36
nColumns=33
inDegrees=no
endheader
time	1LAddLong	2LGlutMax	3LGlutMed	4LIliopsoas	5LSemiMemb	6LBicFemLong	7LRecFem	8LVastMed	9LVastLat	10LGasMed	11LTibAnt	12lTibPost	13LPeroneusLong	14LSol	15LExtDigLong	16LFlexDigLong	17RAddLong	18RGlutMax	19RGlutMed	20RIliopsoas	21RSemiMemb	22RBicFemLong	23RRecFem	24RVastMed	25RVastLat	26RGasMed	27RTibAnt	28RTibPost	29RPeroneusLong	30RSol	31RExtDigLong	32RFlexDigLong
1.645	0.022583	0.5867	0.035706	0.009308	0.001678	-0.19959	0.31815	0.032959	-0.15228	0.008545	0.15503	0.002441	-0.000763	-0.028687	-0.026703	-0.012665	0.018921	-0.31784	-0.063934	0.039063	0.010681	-0.045776	0.3447	-0.076904	-0.006104	-0.007324	-0.007629	-0.009613	0.3479	0.003662	-0.010071	0.001221
1.646	0.039368	0.54855	0.007172	0.008545	0.033264	-0.3183	0.41458	0.007477	-0.061035	-0.007477	0.22064	-0.000153	-0.021362	-0.084076	-0.013428	0.002594	0.002136	-0.32303	-0.019073	0.034485	-0.007324	-0.056915	0.37186	-0.13046	-0.027924	-0.009613	-0.022583	-0.003052	0.19302	-0.043335	-0.013733	-0.003357
1.647	0.023041	0.43579	-0.19318	-0.006256	0.048218	-0.112	0.53238	0.004883	-0.023956	-0.025482	0.15839	-0.006256	-0.024872	0.056458	-0.13519	0.015564	0.032349	-0.31555	-0.096588	0.048218	-0.020142	-0.085754	0.37842	-0.12589	-0.032349	-0.006714	-0.014343	-0.00061	0.12451	-0.057526	-0.009613	0
1.648	0.007324	0.3508	-0.32211	-0.011139	0.024414	0.12482	0.58518	0.010529	-0.045776	-0.056152	-0.11566	-0.004272	-0.17578	0.10651	-0.12146	-0.006561	0.054016	-0.33005	-0.029755	-0.021362	-0.024872	-0.068359	0.40405	-0.16968	-0.037842	-0.001221	-0.001984	-0.004272	0.15198	-0.009155	-0.005951	-0.009918
1.649	0.003204	0.28625	-0.28549	-0.009766	-0.00351	0.17151	0.53909	0.017395	-0.047455	-0.02182	-0.2446	-0.00351	-0.027008	-0.037689	-0.055695	-0.002899	0.049896	-0.3302	0.027008	-0.039673	-0.022583	-0.088806	0.41885	-0.16846	-0.017548	-0.010376	-0.015106	-0.000916	0.094299	-0.016785	-0.006561	-0.001526
1.65	-0.006104	0.23514	-0.27557	-0.005646	-0.017242	0.23956	0.43518	0.027313	-0.032196	0.027466	-0.12543	-0.006256	0.17822	-0.15717	0.038605	0.005341	0.0354	-0.32883	0.10391	-0.06134	-0.024719	-0.069733	0.43381	-0.11246	-0.020599	-0.014801	-0.003052	-0.002594	-0.051422	0.011902	-0.009308	-0.010376
1.651	-0.001678	0.20142	-0.23895	0.010834	-0.052185	0.31509	0.26977	0.042419	0.076447	-0.021057	-0.061951	0.000153	-0.20844	-0.121	0.10529	-0.003662	0.002136	-0.36224	0.13397	0.08255	-0.030975	-0.080414	0.42633	-0.11459	-0.018768	-0.003967	-0.000458	-0.002441	0.12497	0.047913	-0.010986	-0.014038
1.652	-0.001526	0.23621	-0.16724	0.005798	-0.080566	0.37567	0.080109	0.056763	0.24689	-0.000305	-0.023956	-0.003967	-0.076294	-0.099182	0.22034	-0.010834	0.009003	-0.44434	0.23483	0.11795	-0.027924	-0.064697	0.42862	-0.10925	-0.032959	0.001984	-0.049591	-0.005035	0.41229	0.04425	-0.011139	-0.008392
1.653	0.013123	0.3154	0.014343	0.007477	-0.099945	0.37384	0.072784	0.053406	0.37598	-0.009613	0.036316	-0.001678	0.04364	-0.085602	0.065765	-0.003815	0.045929	-0.48279	0.15243	0.090332	-0.013428	-0.066071	0.42786	-0.069733	-0.025482	-0.002747	-0.050964	-0.005341	0.22263	0.011749	-0.011292	-0.006104
1.654	0.032959	0.35172	-0.016022	0.009308	-0.07309	0.32501	0.18692	0.058594	0.28503	-0.007019	0.11215	0.003357	-0.044861	-0.02243	0.067749	0.008392	0.062103	-0.4924	0.11475	0.026093	-0.008392	-0.075226	0.42694	-0.072174	-0.032043	-0.006561	-0.051575	-0.002441	0.20233	-0.023651	-0.014496	-0.008392
1.655	0.02594	0.37735	-0.1622	0.032349	0.005646	0.18936	0.1268	0.063629	0.012512	0.003815	0.11673	0.00885	-0.002289	0.038147	0.068207	0.010529	0.067444	-0.56061	0.20828	-0.025482	0.014191	-0.067444	0.47516	-0.026245	-0.02533	-0.004272	-0.056152	-0.000305	0.24399	-0.053864	-0.016632	-0.013123
1.656	0.029297	0.43213	-0.029297	-0.009613	0.02594	-0.15778	0.004883	0.038605	-0.005188	-0.037689	-0.002899	0.00473	0.29984	0.055695	0.12558	0.009155	0.07843	-0.63751	0.083771	-0.10696	0.023804	-0.09201	0.46432	0.029297	-0.020599	-0.006104	-0.084839	-0.00824	0.1651	-0.030518	-0.01236	-0.010071
1.657	0.020142	0.4747	0.21393	-0.032654	0.054779	-0.41245	0.006409	0.048676	-0.014648	-0.039978	-0.007629	0.010071	-0.014954	0.11856	0.19913	0.011749	0.08255	-0.63477	0.027313	-0.21652	0.022278	-0.088959	0.45303	0.064545	-0.026398	-0.007782	-0.083313	-0.006714	0.087433	-0.011139	-0.014954	0.000153
1.658	0.020905	0.55298	0.057526	-0.016174	0.013123	-0.32257	-0.11276	0.014191	-0.01709	-0.033722	0.076141	0.007629	-0.63095	0.08728	-0.12756	-0.002747	0.055542	-0.57159	0.21805	-0.27329	0.030518	-0.084686	0.45746	0.056763	-0.034027	0.001221	-0.041656	-0.008545	0.027161	-0.002136	-0.014648	-0.002899
1.659	0.031281	0.56244	-0.097656	0.011597	-0.006256	-0.13458	-0.086975	-0.040894	-0.25543	0.027618	0.070953	0.012665	-0.50018	-0.037537	-0.14633	0.008392	0.025177	-0.59464	0.069275	-0.20187	0.025635	-0.080261	0.44601	0.032043	-0.045776	-0.009003	0.03891	-0.003967	0.013428	0.011292	-0.017853	-0.005493
1.66	0.021515	0.54886	-0.061798	0.002747	0.00412	-0.31937	-0.26855	-0.080414	-0.55649	0.032349	-0.048828	0.00473	0.10147	-0.062103	-0.035553	-0.003815	0.008698	-0.66406	-0.15305	-0.10849	0.025024	-0.095062	0.48431	0.026245	-0.050812	-0.00351	0.17273	-0.002441	-0.027618	-0.025635	-0.023804	-0.005035
1.661	0.017853	0.54703	0.0177	0.015717	0.057983	-0.43335	-0.49728	-0.05249	-0.45685	0.019836	-0.10086	0.000763	0.14053	-0.038147	0.04425	-0.01236	0.003357	-0.63629	-0.054779	0.000305	0.023651	-0.083618	0.51285	0.016632	-0.060577	-0.007019	0.24612	-0.002289	-0.007629	-0.071564	-0.02655	0.001678
1.662	0.022125	0.45303	-0.19058	0.003967	0.081329	-0.31265	-0.49164	-0.024567	-0.3244	0.00412	-0.095367	0.002289	-0.23453	0.015564	0.11002	-0.00946	0.014648	-0.68848	0.023956	0.15076	0.03006	-0.075684	0.50079	0.054932	-0.036011	0.000153	0.26459	-0.002899	-0.009155	-0.11154	-0.020447	-0.001678
1.663	0.018768	0.34866	-0.19867	0.008392	0.079651	-0.12192	-0.22903	-0.019989	-0.21011	-0.002747	-0.041962	0.004883	-0.15045	0.078125	-0.14023	-0.004883	0.052032	-0.71152	-0.057526	0.11459	0.021515	-0.081635	0.49042	0.072174	-0.058136	-0.001373	0.066223	-0.004272	0.049438	-0.13229	-0.020447	-0.007629
1.664	0.03006	0.31113	-0.12817	-0.010376	0.020294	-0.12756	-0.054779	-0.012207	-0.15488	0.017853	-0.050201	-0.007324	-0.049438	0.15808	-0.35507	-0.014801	0.07019	-0.79025	-0.090942	0.066376	0.009308	-0.089417	0.49271	0.066833	-0.034332	0.001984	-0.44128	-0.003204	0.15182	-0.16296	-0.018005	0
1.665	0.03418	0.29144	-0.1355	-0.001526	-0.099487	-0.11841	-0.050354	-0.000153	0.039825	0.023346	-0.15961	0.003204	-0.059204	0.12573	-0.42358	-0.012512	0.08255	-0.88074	-0.077362	0.10269	0.010529	-0.088348	0.51392	0.008545	-0.054779	-0.000916	-0.34851	-0.001373	0.056305	-0.088806	-0.020447	-0.011597
1.666	0.031586	0.31052	-0.11322	-0.000153	-0.12863	-0.10391	-0.085602	-0.024261	0.12558	0.009308	0.035248	0.002899	0.069733	-0.059967	0.65323	0.004883	0.087585	-0.94879	-0.09079	0.15259	-0.00061	-0.080414	0.48538	0.003815	-0.049286	-0.000305	-0.006866	-0.005341	-0.031738	-0.023193	-0.019531	-0.014954
1.667	0.035858	0.37628	-0.090332	0.011749	-0.064392	-0.090637	-0.12436	-0.016174	0.026855	0.00061	0.24338	0.000763	-0.06485	-0.18417	-0.20905	0.005035	0.072937	-0.99564	-0.14099	0.069427	-0.012054	-0.07782	0.43015	0.026093	-0.054779	-0.001678	0.054016	-0.007477	-0.011139	-0.066528	-0.019836	-0.01709
1.668	0.024872	0.41077	-0.15274	0.021667	-0.04776	-0.049286	-0.08667	-0.007019	-0.095673	-0.00946	0.39032	-0.002289	-0.061493	-0.25436	0.31296	0.010376	0.039825	-1.0042	-0.12329	0.026398	-0.026855	-0.071411	0.3421	0.011749	-0.050049	-0.002441	0.09903	-0.00885	-0.032196	-0.11505	-0.019073	-0.014648
1.669	0.030518	0.42877	-0.15976	0.021057	0.036621	-0.039978	-0.038757	-0.012054	-0.18646	0.006409	0.29953	-0.002594	0.034637	-0.14557	-0.037231	0.00351	0.009918	-0.96909	-0.047302	-0.03891	-0.033112	-0.073395	0.33356	0.032959	-0.02533	0.000305	0.16556	-0.007172	-0.018311	-0.11536	-0.021667	-0.009613
1.67	0.017853	0.40939	-0.12878	0.017548	0.074921	0.000153	0.015106	-0.035858	-0.31265	0.025482	0.11841	0.001526	-0.016937	-0.03006	0.058136	-0.007324	0.019531	-0.90561	-0.11063	-0.042725	-0.027771	-0.062103	0.3067	0.029907	-0.045471	0.000916	-0.037537	-0.00885	-0.030975	-0.10162	-0.028381	-0.007324
1.671	0.022888	0.51666	-0.019531	0.011444	0.036316	-0.000916	-0.04837	0.021057	-0.21194	0.024109	-0.009766	-0.005341	-0.021057	0.074463	0.12558	0.001678	0.000763	-0.82916	-0.072784	-0.066528	-0.027161	-0.049896	0.26855	0.10101	-0.014496	-0.008392	-0.097961	-0.009308	-0.033112	-0.084534	-0.019379	-0.009918
1.672	0.029602	0.61432	0.078125	0.015106	0.053406	0.011597	-0.12085	-0.023193	-0.040741	-0.010071	-0.12421	0.001526	-0.02594	0.12787	0.075531	0.005646	0.014496	-0.82855	-0.070496	-0.061646	-0.013733	-0.034485	0.20401	0.090942	-0.011902	-0.004883	-0.006104	-0.008698	0.016937	-0.014648	-0.024567	-0.008087
1.673	0.032959	0.5838	0.009308	0.015869	0.077057	0.021515	-0.097961	-0.001831	0.01236	-0.012817	-0.26459	-0.000458	-0.009918	0.069427	0.10376	0.005188	0.018311	-0.79102	-0.058899	-0.041351	0.020142	-0.032654	0.22614	0.085907	0.005493	-0.001984	0.17303	-0.010071	0.087433	-0.043182	-0.022736	0.001068
1.674	0.036926	0.69824	0.057983	0.009613	0.024872	0.06546	-0.1384	-0.012817	0.0177	-0.000916	-0.32196	-0.001984	0.045013	-0.043488	-0.39978	0.011139	-0.013123	-0.77301	-0.16861	0.010071	0.037842	-0.005493	0.20355	0.099487	0.00885	-0.004883	0.047913	-0.007172	0.097809	-0.071411	-0.021057	-0.001678
1.675	0.023499	0.76584	0.096588	-0.006256	0.009766	0.1387	-0.21133	-0.001678	0.032501	0.013428	-0.26566	0.003815	0.057373	-0.033417	0.20737	0.007019	-0.034943	-0.68634	-0.29282	0.011139	0.04715	0.014648	0.17456	0.1149	0.016327	-0.003357	-0.18295	-0.006714	-0.022125	-0.05249	-0.016632	-0.00885
1.676	0.013885	0.74905	0.12955	0.029297	-0.027008	0.19684	-0.20187	0.036469	0.10788	0.032349	-0.24506	0.003204	0.048828	-0.021515	-0.29694	0.004578	-0.032349	-0.7077	-0.50537	-0.006409	0.057373	0.031738	0.16846	0.096283	0.013428	-0.007324	-0.20355	-0.008698	-0.13397	-0.021667	-0.020905	-0.005188
1.677	0.020599	0.77835	0.065918	0.004883	-0.036469	0.22492	-0.23254	0.037384	0.11429	0.00946	-0.056152	0.003967	0.071106	-0.13412	-0.29266	0.010071	-0.031586	-0.67215	-0.43655	-0.017853	0.036926	0.014191	0.21988	0.06012	0.007019	-0.005341	-0.2829	-0.010071	-0.069885	-0.043182	-0.018921	-0.003815
1.678	0.014343	0.82153	0.046539	-0.006409	-0.05188	0.30777	-0.15793	0.026703	0.078278	-0.010376	0.13229	0.00061	0.072174	-0.1712	-0.11414	0.002594	-0.046234	-0.59784	-0.40817	0.052338	0.023651	-0.00824	0.2272	0.070343	0.002441	0.01236	0.3064	-0.006866	-0.029449	-0.12512	-0.023041	-0.007172
1.679	0.016174	0.84152	-0.025787	-0.012054	-0.091248	0.29633	-0.10529	0.011292	-0.019684	0.005188	0.25497	-0.012817	0.021667	-0.06424	-0.088348	0.016785	-0.033875	-0.44998	-0.34973	0.16419	0.003357	0.003815	0.24735	0.018463	-0.009766	0.005646	0.39307	-0.010071	-0.051422	-0.21301	-0.019836	0.000305
1.68	0.019226	0.78384	-0.032196	0.00946	-0.047913	0.22842	-0.095367	-0.011902	-0.043945	0.034332	0.22079	-0.00412	-0.022888	0.013733	-0.0737	0.016327	-0.012665	-0.34912	-0.36118	0.13702	-0.008545	-0.006256	0.22369	0.016174	0.012512	0.005493	-0.18158	-0.010223	-0.036011	-0.18738	-0.015717	-0.005188
